# xmcd
#
# Track frame offsets:
#	150
#	17487
#	33453
#	43195
#	54093
#	95460
#	121524
#	153916
#
# Disc length: 2316 seconds
#
# Revision: 0
# Processed by: cddbd v1.5.1PL2 Copyright (c) Steve Scherf et al.
# Submitted via: SynApp - FreeCDDB Version: 2.0
#
DISCID=51090a08
DTITLE=ENYA - Curiosidades
DYEAR=1111
DGENRE=A capella
TTITLE0=The council of Elrond
TTITLE1=18. ENYA - May it be
TTITLE2=ENYA - A pulmón
TTITLE3=ENYA - Bonus en Japón
TTITLE4=ENYA - May It Be (Extended Mix By DJ MiKE)
TTITLE5=ENYA - Only Time (Ashleigh Remix)
TTITLE6=ENYA - Storms In Africa (Maiden of Mysteries Remix)
TTITLE7=ENYA - Triad (St. Patrick, Cu Chulain, Osin)
EXTD=
EXTT0=
EXTT1=
EXTT2=
EXTT3=
EXTT4=
EXTT5=
EXTT6=
EXTT7=
PLAYORDER=
